# xmcd
#
# Track frame offsets:
# 150
# 19206
# 31888
# 50720
# 64375
# 84404
# 98439
# 119529
# 141665
# 164696
# 177409
# 192339
# 209699
# 221179
# 239709
#
# Disc length: 3344 seconds
#
# Revision: 0
# Processed by: cddbd v1.5.1PL0 Copyright (c) Steve Scherf et al.
# Submitted via: Axialis_AX_CDPlayer 2.6
#
DISCID=f10d0e0f
DTITLE=Synergy - Rhythm And Blues
DYEAR=1900
DGENRE=
TTITLE0=Game of Love
TTITLE1=Vehicle
TTITLE2=Give Me One Reason
TTITLE3=Temptation Eyes
TTITLE4=Dreams
TTITLE5=To Hard To Handle
TTITLE6=Funky Music
TTITLE7=Moon Dance
TTITLE8=Black Velvet
TTITLE9=Get Ready
TTITLE10=Gimme Some Lovin
TTITLE11=First Cut Is The Deepest
TTITLE12=Ain't Too Proud To Beg
TTITLE13=Drift Away
TTITLE14=Shake Your Tailfeather
EXTD=Local Upstate New York Band
EXTT0=
EXTT1=
EXTT2=
EXTT3=
EXTT4=
EXTT5=
EXTT6=
EXTT7=
EXTT8=
EXTT9=
EXTT10=
EXTT11=
EXTT12=
EXTT13=
EXTT14=
PLAYORDER=
